<svg width="25" height="24" viewBox="0 0 25 24" fill="none" xmlns="http://www.w3.org/2000/svg">
<g id="Frame">
<path id="Vector" fill-rule="evenodd" clip-rule="evenodd" d="M16.3937 2C16.5337 3.212 16.0287 4.405 15.2897 5.283C14.5197 6.147 13.2857 6.807 12.0857 6.722C11.9287 5.557 12.5367 4.317 13.2177 3.561C13.9877 2.701 15.3247 2.044 16.3937 2ZM20.2327 8.509C20.0907 8.589 17.8787 9.849 17.9027 12.411C17.9307 15.513 20.7597 16.538 20.7927 16.549C20.7767 16.621 20.3497 18.029 19.2907 19.457C18.4047 20.715 17.4757 21.945 16.0027 21.967C15.3027 21.983 14.8287 21.791 14.3357 21.592C13.8217 21.384 13.2857 21.167 12.4467 21.167C11.5587 21.167 10.9987 21.391 10.4587 21.607C9.99173 21.793 9.54073 21.974 8.90373 21.999C7.50073 22.049 6.42773 20.656 5.50973 19.409C3.67673 16.865 2.24873 12.236 4.16273 9.087C5.09073 7.542 6.78273 6.547 8.59073 6.521C9.38673 6.505 10.1507 6.797 10.8207 7.052C11.3327 7.248 11.7897 7.422 12.1637 7.422C12.4927 7.422 12.9367 7.255 13.4547 7.06C14.2707 6.752 15.2677 6.376 16.2847 6.477C16.9797 6.497 18.9597 6.737 20.2357 8.507L20.2327 8.509Z" fill="black"/>
</g>
</svg>
