<svg width="25" height="24" viewBox="0 0 25 24" fill="none" xmlns="http://www.w3.org/2000/svg">
<g id="check-circle">
<g id="check-circle_2">
<path d="M12.335 1.25C6.40696 1.25 1.58496 6.073 1.58496 12C1.58496 17.927 6.40696 22.75 12.335 22.75C18.263 22.75 23.085 17.927 23.085 12C23.085 6.073 18.263 1.25 12.335 1.25ZM12.335 21.25C7.23396 21.25 3.08496 17.101 3.08496 12C3.08496 6.899 7.23396 2.75 12.335 2.75C17.436 2.75 21.585 6.899 21.585 12C21.585 17.101 17.436 21.25 12.335 21.25ZM16.365 9.13599C16.658 9.42899 16.658 9.90402 16.365 10.197L11.698 14.864C11.552 15.01 11.36 15.084 11.168 15.084C10.976 15.084 10.784 15.011 10.638 14.864L8.30496 12.531C8.01196 12.238 8.01196 11.763 8.30496 11.47C8.59796 11.177 9.07297 11.177 9.36597 11.47L11.169 13.273L15.305 9.13702C15.598 8.84402 16.072 8.84399 16.365 9.13599Z" fill="#292421"/>
<path fill-rule="evenodd" clip-rule="evenodd" d="M12.335 21.25C7.23396 21.25 3.08496 17.101 3.08496 12C3.08496 6.899 7.23396 2.75 12.335 2.75C17.436 2.75 21.585 6.899 21.585 12C21.585 17.101 17.436 21.25 12.335 21.25ZM16.365 10.197C16.658 9.90402 16.658 9.42899 16.365 9.13599C16.072 8.84399 15.598 8.84402 15.305 9.13702L11.169 13.273L9.36597 11.47C9.07297 11.177 8.59796 11.177 8.30496 11.47C8.01196 11.763 8.01196 12.238 8.30496 12.531L10.638 14.864C10.784 15.011 10.976 15.084 11.168 15.084C11.36 15.084 11.552 15.01 11.698 14.864L16.365 10.197Z" fill="#6F6F6F"/>
</g>
</g>
</svg>
