<svg width="40" height="41" viewBox="0 0 40 41" fill="none" xmlns="http://www.w3.org/2000/svg">
<g id="uil:exchange">
<rect x="40" width="40.8163" height="40" rx="20" transform="rotate(90 40 0)" fill="#D1D1D1"/>
<path id="Vector" d="M22.3853 27.7077C22.7016 27.7077 23.0049 27.5795 23.2285 27.3513C23.4522 27.123 23.5778 26.8135 23.5778 26.4908L23.5778 12.3867L26.3088 15.1856C26.5334 15.4148 26.838 15.5435 27.1556 15.5435C27.4732 15.5435 27.7777 15.4148 28.0023 15.1856C28.2269 14.9565 28.353 14.6457 28.353 14.3216C28.353 13.9976 28.2269 13.6868 28.0023 13.4576L23.232 8.58996C23.0643 8.4211 22.8513 8.30671 22.62 8.26123C22.3886 8.21575 22.1493 8.24121 21.9321 8.3344C21.7143 8.4257 21.5279 8.58073 21.3963 8.77996C21.2647 8.9792 21.1939 9.21372 21.1927 9.45396L21.1927 26.4908C21.1927 26.8135 21.3183 27.123 21.542 27.3513C21.7656 27.5795 22.069 27.7077 22.3853 27.7077ZM18.0681 32.478C18.2859 32.3867 18.4724 32.2317 18.6039 32.0324C18.7355 31.8332 18.8064 31.5987 18.8075 31.3584L18.8075 14.3216C18.8075 13.9989 18.6819 13.6894 18.4582 13.4611C18.2346 13.2329 17.9313 13.1047 17.615 13.1047C17.2987 13.1047 16.9953 13.2329 16.7717 13.4611C16.548 13.6894 16.4224 13.9989 16.4224 14.3216L16.4224 28.4257L13.6914 25.6268C13.5805 25.5127 13.4486 25.4222 13.3033 25.3604C13.158 25.2986 13.0021 25.2668 12.8447 25.2668C12.6872 25.2668 12.5313 25.2986 12.386 25.3604C12.2407 25.4222 12.1088 25.5127 11.9979 25.6268C11.8862 25.7399 11.7974 25.8745 11.7369 26.0228C11.6763 26.1711 11.6452 26.3301 11.6452 26.4908C11.6452 26.6514 11.6763 26.8105 11.7369 26.9588C11.7974 27.1071 11.8862 27.2416 11.9979 27.3548L16.7682 32.2224C16.9359 32.3913 17.1489 32.5057 17.3802 32.5512C17.6116 32.5966 17.851 32.5712 18.0681 32.478Z" fill="#292421"/>
</g>
</svg>
