<svg width="15" height="15" viewBox="0 0 15 15" fill="none" xmlns="http://www.w3.org/2000/svg">
<g clip-path="url(#clip0_667_12727)">
<path d="M3.29128 6.10283C3.87415 4.33664 5.53394 3.06818 7.49991 3.06818C8.55673 3.06818 9.51127 3.44318 10.2613 4.05682L12.4431 1.875C11.1135 0.715909 9.409 0 7.49991 0C4.5437 0 1.9985 1.68644 0.774902 4.15627L3.29128 6.10283Z" fill="#292421"/>
<path d="M10.0255 11.2579C9.34435 11.6977 8.47883 11.9319 7.50002 11.9319C5.54158 11.9319 3.88697 10.6731 3.29814 8.91748L0.773438 10.8344C1.99552 13.3086 4.54065 15.0001 7.50002 15.0001C9.33305 15.0001 11.0846 14.3484 12.3964 13.1248L10.0255 11.2579Z" fill="#292421"/>
<path d="M12.3964 13.1246C13.7682 11.8449 14.6591 9.93966 14.6591 7.49987C14.6591 7.05668 14.5909 6.57941 14.4886 6.13623H7.5V9.03396H11.5227C11.3242 10.0084 10.7914 10.7631 10.0255 11.2577L12.3964 13.1246Z" fill="#292421"/>
<path d="M3.29811 8.91741C3.14895 8.47269 3.06818 7.99608 3.06818 7.49998C3.06818 7.01141 3.14652 6.54174 3.29138 6.10282L0.774994 4.15625C0.272867 5.16275 0 6.2971 0 7.49998C0 8.6997 0.277988 9.83134 0.773414 10.8344L3.29811 8.91741Z" fill="#292421"/>
</g>
<defs>
<clipPath id="clip0_667_12727">
<rect width="15" height="15" fill="white"/>
</clipPath>
</defs>
</svg>
