<svg width="13" height="15" viewBox="0 0 13 15" fill="none" xmlns="http://www.w3.org/2000/svg">
<path d="M10.7006 7.92698C10.6935 6.69746 11.2461 5.77081 12.3619 5.08754C11.7378 4.18614 10.7936 3.69036 9.549 3.59481C8.37053 3.50107 7.08119 4.28709 6.60908 4.28709C6.11016 4.28709 4.96924 3.62726 4.07153 3.62726C2.21888 3.65611 0.25 5.11639 0.25 8.08743C0.25 8.9654 0.409156 9.87221 0.727468 10.8061C1.15308 12.0356 2.68741 15.0481 4.28791 14.9994C5.12482 14.9796 5.71674 14.4009 6.80579 14.4009C7.86266 14.4009 8.40987 14.9994 9.34335 14.9994C10.9582 14.976 12.3459 12.2375 12.75 11.0044C10.5844 9.97497 10.7006 7.99007 10.7006 7.92698ZM8.82117 2.42839C9.72783 1.3431 9.64557 0.355154 9.61874 0C8.8176 0.0468732 7.89127 0.549859 7.36373 1.16822C6.78255 1.83166 6.44099 2.65194 6.51431 3.57678C7.37983 3.64349 8.17024 3.19459 8.82117 2.42839Z" fill="#292421"/>
</svg>
