<svg width="40" height="57" viewBox="0 0 40 57" fill="none" xmlns="http://www.w3.org/2000/svg">
<rect x="2" width="36" height="35" rx="17.5" fill="#FED602"/>
<path fill-rule="evenodd" clip-rule="evenodd" d="M20.7904 10.1447C20.5439 10.0284 20.2703 9.96484 19.9864 9.96484C19.2479 9.96484 18.5784 10.3953 18.2773 11.0637L12 24.9992H14.3373L15.8356 21.5688L16.7047 19.6L19.6155 12.9193L20.7904 10.1447ZM20.8491 14.2676L23.1473 19.5702L23.9864 21.5389L25.4847 24.9694H27.9719L21.9588 11.6469L20.8491 14.2676ZM22.1479 22.4277L19.9006 17.7959L17.6533 22.4277L22.1479 22.4277Z" fill="#292421"/>
<rect y="40" width="40" height="17" rx="8.5" fill="#292421"/>
<path d="M15.2436 50.7093C15.2436 51.1683 15.1195 51.5688 14.8714 51.911C14.6233 52.2531 14.2866 52.5202 13.8613 52.7121C13.4449 52.904 12.9841 53 12.479 53H8V44.1127H12.6917C13.1347 44.1127 13.5157 44.2253 13.8347 44.4506C14.1626 44.6676 14.4107 44.9513 14.579 45.3018C14.7562 45.644 14.8448 46.0028 14.8448 46.3783C14.8448 46.8122 14.7252 47.2211 14.486 47.605C14.2556 47.9805 13.9233 48.2601 13.4892 48.4437C14.0297 48.5939 14.455 48.8734 14.7651 49.2823C15.0841 49.6829 15.2436 50.1586 15.2436 50.7093ZM14.0341 50.509C14.0341 50.2337 13.9676 49.9791 13.8347 49.7455C13.7107 49.5118 13.5379 49.3241 13.3164 49.1822C13.1037 49.0403 12.8556 48.9694 12.5721 48.9694H9.19618V52.0236H12.479C12.7714 52.0236 13.0328 51.9527 13.2632 51.8108C13.5024 51.669 13.6885 51.4854 13.8214 51.2601C13.9632 51.0264 14.0341 50.7761 14.0341 50.509ZM9.19618 45.089V48.0556H12.1999C12.4835 48.0556 12.7316 47.9889 12.9442 47.8554C13.1657 47.7218 13.3385 47.5424 13.4626 47.3171C13.5955 47.0918 13.6619 46.8456 13.6619 46.5786C13.6619 46.2949 13.5999 46.0445 13.4759 45.8275C13.3607 45.6022 13.1968 45.4228 12.9841 45.2893C12.7803 45.1558 12.5455 45.089 12.2797 45.089H9.19618Z" fill="white"/>
<path d="M16.3985 53C16.3985 52.4993 16.4428 52.057 16.5314 51.6732C16.6289 51.2809 16.7662 50.9305 16.9434 50.6217C17.1295 50.3129 17.351 50.0417 17.608 49.8081C17.865 49.5744 18.1574 49.3658 18.4852 49.1822C18.8308 48.9903 19.1852 48.815 19.5485 48.6565C19.9118 48.4979 20.2485 48.331 20.5586 48.1558C20.8687 47.9805 21.1168 47.7719 21.3029 47.5299C21.4978 47.2796 21.5953 46.9708 21.5953 46.6036C21.5953 46.3115 21.5288 46.0487 21.3959 45.815C21.263 45.573 21.0636 45.3811 20.7978 45.2392C20.532 45.0974 20.1909 45.0264 19.7744 45.0264C19.358 45.0264 18.9814 45.0932 18.6447 45.2267C18.3168 45.3602 18.0333 45.5188 17.7941 45.7024C17.5548 45.886 17.3643 46.0612 17.2226 46.2281L16.465 45.5146C16.5359 45.4312 16.6599 45.306 16.8371 45.1391C17.0232 44.9722 17.258 44.8011 17.5415 44.6259C17.8339 44.4506 18.1751 44.3046 18.5649 44.1878C18.9548 44.0626 19.3978 44 19.894 44C20.5586 44 21.1124 44.1168 21.5554 44.3505C21.9984 44.5841 22.3307 44.8971 22.5522 45.2893C22.7826 45.6815 22.8978 46.1154 22.8978 46.5911C22.8978 47.0167 22.8136 47.3839 22.6453 47.6926C22.4769 47.993 22.2598 48.2476 21.994 48.4562C21.7282 48.6648 21.4358 48.8484 21.1168 49.007C20.8067 49.1655 20.5054 49.3157 20.213 49.4576C19.6548 49.7079 19.2118 49.9374 18.8839 50.146C18.5561 50.3547 18.3036 50.5591 18.1263 50.7594C17.958 50.9513 17.8428 51.1474 17.7808 51.3477C17.7276 51.548 17.6966 51.765 17.6877 51.9986H22.9111V53H16.3985Z" fill="white"/>
<path d="M32 50.7093C32 51.1683 31.876 51.5688 31.6279 51.911C31.3798 52.2531 31.0431 52.5202 30.6177 52.7121C30.2013 52.904 29.7405 53 29.2355 53H24.7564V44.1127H29.4481C29.8912 44.1127 30.2722 44.2253 30.5912 44.4506C30.919 44.6676 31.1671 44.9513 31.3355 45.3018C31.5127 45.644 31.6013 46.0028 31.6013 46.3783C31.6013 46.8122 31.4817 47.2211 31.2424 47.605C31.012 47.9805 30.6798 48.2601 30.2456 48.4437C30.7861 48.5939 31.2114 48.8734 31.5215 49.2823C31.8405 49.6829 32 50.1586 32 50.7093ZM30.7905 50.509C30.7905 50.2337 30.7241 49.9791 30.5912 49.7455C30.4671 49.5118 30.2943 49.3241 30.0728 49.1822C29.8602 49.0403 29.6121 48.9694 29.3285 48.9694H25.9526V52.0236H29.2355C29.5279 52.0236 29.7893 51.9527 30.0197 51.8108C30.2589 51.669 30.445 51.4854 30.5779 51.2601C30.7196 51.0264 30.7905 50.7761 30.7905 50.509ZM25.9526 45.089V48.0556H28.9564C29.2399 48.0556 29.488 47.9889 29.7007 47.8554C29.9222 47.7218 30.095 47.5424 30.219 47.3171C30.3519 47.0918 30.4184 46.8456 30.4184 46.5786C30.4184 46.2949 30.3564 46.0445 30.2323 45.8275C30.1171 45.6022 29.9532 45.4228 29.7405 45.2893C29.5367 45.1558 29.3019 45.089 29.0361 45.089H25.9526Z" fill="white"/>
</svg>
