<svg width="144" height="21" viewBox="0 0 144 21" fill="none" xmlns="http://www.w3.org/2000/svg">
<path d="M51.8706 17.7954V20.5H66.9602V17.7954H51.8706ZM51.8706 0.454102V3.1587H66.9602V0.454102H51.8706ZM51.8706 9.12473V11.8293H65.6928V9.12473H51.8706Z" fill="#EEB90B"/>
<path d="M49.3484 0.454102L43.4812 18.8648C43.1708 19.8387 42.2661 20.5 41.2439 20.5C40.261 20.5 39.3821 19.8878 39.0413 18.966L34.1082 5.62085L29.2765 18.9696C28.944 19.8881 28.0719 20.5 27.0951 20.5C26.0852 20.5 25.1913 19.8467 24.8847 18.8845L19.0112 0.454102H22.5921L27.3188 15.785L31.8868 2.05133C32.204 1.09761 33.0962 0.454102 34.1013 0.454102C35.0992 0.454102 35.9867 1.08856 36.3095 2.03278L41.0121 15.785L45.7102 0.454102H49.3484Z" fill="#EEB90B"/>
<path d="M84.7109 20.5L78.4112 12.3498L72.1514 20.5H68.6826L76.617 10.3716L69.0415 0.559814H72.59L78.491 8.19564L84.3122 0.559814H87.8208L80.2453 10.2134L88.1797 20.5H84.7109Z" fill="#EEB90B"/>
<path fill-rule="evenodd" clip-rule="evenodd" d="M11.7205 0.693851C11.3919 0.538871 11.027 0.454102 10.6486 0.454102C9.66387 0.454102 8.77123 1.02801 8.36979 1.91921L0 20.5H3.11646L5.1142 15.926L6.27288 13.301L10.154 4.39335L11.7205 0.693851ZM11.7988 6.19106L14.8631 13.2612L15.9819 15.8862L17.9796 20.4602H21.2958L13.2783 2.69686L11.7988 6.19106ZM13.5305 17.0712L10.5341 10.8955L7.53769 17.0712L13.5305 17.0712Z" fill="#EEB90B"/>
<rect x="93.1357" y="0.5" width="50" height="20" rx="10" fill="#EEB90B"/>
<path d="M112.41 13.324C112.41 13.9107 112.261 14.4227 111.962 14.86C111.663 15.2974 111.258 15.6387 110.746 15.884C110.245 16.1294 109.69 16.252 109.082 16.252H103.69V4.89205H109.338C109.871 4.89205 110.33 5.03605 110.714 5.32405C111.109 5.60138 111.407 5.96405 111.61 6.41205C111.823 6.84938 111.93 7.30805 111.93 7.78805C111.93 8.34271 111.786 8.86538 111.498 9.35605C111.221 9.83605 110.821 10.1934 110.298 10.428C110.949 10.62 111.461 10.9774 111.834 11.5C112.218 12.012 112.41 12.62 112.41 13.324ZM110.954 13.068C110.954 12.716 110.874 12.3907 110.714 12.092C110.565 11.7934 110.357 11.5534 110.09 11.372C109.834 11.1907 109.535 11.1 109.194 11.1H105.13V15.004H109.082C109.434 15.004 109.749 14.9134 110.026 14.732C110.314 14.5507 110.538 14.316 110.698 14.028C110.869 13.7294 110.954 13.4094 110.954 13.068ZM105.13 6.14005V9.93205H108.746C109.087 9.93205 109.386 9.84671 109.642 9.67605C109.909 9.50538 110.117 9.27605 110.266 8.98805C110.426 8.70005 110.506 8.38538 110.506 8.04405C110.506 7.68138 110.431 7.36138 110.282 7.08405C110.143 6.79605 109.946 6.56671 109.69 6.39605C109.445 6.22538 109.162 6.14005 108.842 6.14005H105.13Z" fill="white"/>
<path d="M113.8 16.252C113.8 15.612 113.854 15.0467 113.96 14.556C114.078 14.0547 114.243 13.6067 114.456 13.212C114.68 12.8174 114.947 12.4707 115.256 12.172C115.566 11.8734 115.918 11.6067 116.312 11.372C116.728 11.1267 117.155 10.9027 117.592 10.7C118.03 10.4974 118.435 10.284 118.808 10.06C119.182 9.83605 119.48 9.56938 119.704 9.26005C119.939 8.94005 120.056 8.54538 120.056 8.07605C120.056 7.70271 119.976 7.36671 119.816 7.06805C119.656 6.75871 119.416 6.51338 119.096 6.33205C118.776 6.15071 118.366 6.06005 117.864 6.06005C117.363 6.06005 116.91 6.14538 116.504 6.31605C116.11 6.48671 115.768 6.68938 115.48 6.92405C115.192 7.15871 114.963 7.38271 114.792 7.59605L113.88 6.68405C113.966 6.57738 114.115 6.41738 114.328 6.20405C114.552 5.99071 114.835 5.77205 115.176 5.54805C115.528 5.32405 115.939 5.13738 116.408 4.98805C116.878 4.82805 117.411 4.74805 118.008 4.74805C118.808 4.74805 119.475 4.89738 120.008 5.19605C120.542 5.49471 120.942 5.89471 121.208 6.39605C121.486 6.89738 121.624 7.45205 121.624 8.06005C121.624 8.60405 121.523 9.07338 121.32 9.46805C121.118 9.85205 120.856 10.1774 120.536 10.444C120.216 10.7107 119.864 10.9454 119.48 11.148C119.107 11.3507 118.744 11.5427 118.392 11.724C117.72 12.044 117.187 12.3374 116.792 12.604C116.398 12.8707 116.094 13.132 115.88 13.388C115.678 13.6334 115.539 13.884 115.464 14.14C115.4 14.396 115.363 14.6734 115.352 14.972H121.64V16.252H113.8Z" fill="white"/>
<path d="M132.582 13.324C132.582 13.9107 132.432 14.4227 132.134 14.86C131.835 15.2974 131.43 15.6387 130.918 15.884C130.416 16.1294 129.862 16.252 129.254 16.252H123.862V4.89205H129.51C130.043 4.89205 130.502 5.03605 130.886 5.32405C131.28 5.60138 131.579 5.96405 131.782 6.41205C131.995 6.84938 132.102 7.30805 132.102 7.78805C132.102 8.34271 131.958 8.86538 131.67 9.35605C131.392 9.83605 130.992 10.1934 130.47 10.428C131.12 10.62 131.632 10.9774 132.006 11.5C132.39 12.012 132.582 12.62 132.582 13.324ZM131.126 13.068C131.126 12.716 131.046 12.3907 130.886 12.092C130.736 11.7934 130.528 11.5534 130.262 11.372C130.006 11.1907 129.707 11.1 129.366 11.1H125.302V15.004H129.254C129.606 15.004 129.92 14.9134 130.198 14.732C130.486 14.5507 130.71 14.316 130.87 14.028C131.04 13.7294 131.126 13.4094 131.126 13.068ZM125.302 6.14005V9.93205H128.918C129.259 9.93205 129.558 9.84671 129.814 9.67605C130.08 9.50538 130.288 9.27605 130.438 8.98805C130.598 8.70005 130.678 8.38538 130.678 8.04405C130.678 7.68138 130.603 7.36138 130.454 7.08405C130.315 6.79605 130.118 6.56671 129.862 6.39605C129.616 6.22538 129.334 6.14005 129.014 6.14005H125.302Z" fill="white"/>
</svg>
