<svg width="142" height="50" viewBox="0 0 142 50" fill="none" xmlns="http://www.w3.org/2000/svg">
<g clip-path="url(#clip0_562_3709)">
<path d="M141.877 11.7543H134.526L130.272 29.7021L129.675 32.1648C129.265 32.2767 128.854 32.3886 128.444 32.4633C127.698 32.6125 126.914 32.6871 126.093 32.6871C125.16 32.6871 124.414 32.5379 123.854 32.2767C123.332 32.0155 122.922 31.6424 122.698 31.12C122.474 30.6349 122.399 30.0379 122.437 29.3663C122.474 28.6946 122.623 27.9483 122.81 27.2021L125.049 17.8737L126.504 11.6797H119.004L115.608 26.008C115.198 27.7245 114.974 29.3663 114.899 30.9334C114.825 32.5006 115.086 33.8439 115.608 35.0752C116.131 36.2692 117.063 37.2021 118.332 37.911C119.601 38.62 121.429 38.9558 123.743 38.9558C125.347 38.9558 126.765 38.8066 127.959 38.5454C127.996 38.5454 128.071 38.508 128.108 38.508C127.772 40.0006 127.101 41.1946 126.056 42.1274C124.974 43.0603 123.407 43.5454 121.317 43.5454C120.422 43.5454 119.601 43.508 118.854 43.3961L117.399 49.4782C118.369 49.5901 119.451 49.6648 120.646 49.6648C122.884 49.6648 124.825 49.4036 126.504 48.9185C128.183 48.3961 129.601 47.6498 130.832 46.6051C132.026 45.5603 133.034 44.2543 133.854 42.7245C134.675 41.1573 135.31 39.3289 135.795 37.1648L140.869 15.8215L141.877 11.7543Z" fill="#2A3F90"/>
<path d="M111.094 27.0899C110.646 28.9556 110.497 30.8586 110.683 32.7243C110.87 34.6272 111.616 37.5004 112.325 38.9556H105.236C104.377 37.5004 104.415 36.7914 104.228 36.3437C103.295 37.0899 102.288 37.7243 101.168 38.2093C100.049 38.6944 98.8177 38.9556 97.3998 38.9556C95.758 38.9556 94.3401 38.6571 93.1834 38.0974C92.0267 37.5377 91.0565 36.7541 90.3103 35.784C89.564 34.8138 89.0416 33.6944 88.7058 32.3884C88.37 31.0825 88.2207 29.7019 88.2207 28.2093C88.2207 25.9332 88.6312 23.8063 89.4147 21.7914C90.2356 19.7765 91.355 18.0228 92.7729 16.5302C94.1909 15.0377 97.661 11.7168 103.333 11.7168C105.795 11.7168 109.079 11.7168 114.713 11.7168L111.094 27.0899ZM105.907 17.9481C102.474 17.9481 101.84 17.9481 100.422 18.6571C99.4147 19.1795 98.5938 19.9631 97.8849 20.8586C97.1759 21.7541 96.5789 22.7989 96.1685 23.9929C95.758 25.1869 95.5341 26.4183 95.5341 27.6869C95.5341 29.2541 95.7953 30.5228 96.3177 31.4556C96.8401 32.3884 97.8103 32.8362 99.2282 32.8362C99.9744 32.8362 100.683 32.6869 101.28 32.3884C101.877 32.0899 102.549 31.6049 103.221 30.8959C103.295 30.075 103.407 29.2168 103.557 28.3213C103.706 27.4258 103.892 26.5675 104.042 25.8213L105.907 17.9481Z" fill="#2A3F90"/>
<path d="M86.2054 22.5373C86.2054 24.9627 85.795 27.1642 85.0114 29.1791C84.2278 31.194 83.1084 32.9104 81.6905 34.3656C80.2726 35.8209 78.5935 36.9403 76.6159 37.7612C74.6383 38.5821 72.5114 38.9925 70.198 38.9925C69.0786 38.9925 67.9592 38.8806 66.8024 38.694L64.5636 47.6865H57.2129L65.7577 11.791C66.989 11.791 73.5562 11.791 75.5711 11.791C77.4368 11.791 79.0412 12.0895 80.3472 12.6492C81.6905 13.2089 82.7726 13.9925 83.6681 14.9627C84.5263 15.9328 85.1607 17.0895 85.5711 18.3955C86.0189 19.6642 86.2054 21.0447 86.2054 22.5373ZM68.183 32.7239C68.7427 32.8731 69.4517 32.9104 70.2726 32.9104C71.5786 32.9104 72.7353 32.6865 73.8174 32.2015C74.8621 31.7164 75.795 31.0447 76.5413 30.1865C77.2875 29.3283 77.8472 28.2836 78.295 27.0895C78.7054 25.8955 78.9293 24.5522 78.9293 23.097C78.9293 21.6791 78.6308 20.4477 77.9965 19.4776C77.3621 18.4701 76.2801 17.9477 74.7129 17.9477C73.6308 17.9477 71.8024 17.9477 71.8024 17.9477L68.183 32.7239Z" fill="#2A3F90"/>
<path d="M52.7355 32.7241C51.8026 32.7241 51.0564 32.5749 50.4966 32.3137C49.9743 32.0525 49.5638 31.6794 49.3399 31.157C49.1161 30.6719 49.0414 30.0749 49.0787 29.4032C49.1161 28.7316 49.2653 27.9853 49.4519 27.2391L51.6907 17.9107H60.0489L61.5787 11.7167H53.1832L55.1235 3.88086L47.2877 5.1122L42.325 26.0824C41.9146 27.7988 41.6907 29.4406 41.6161 31.0077C41.5414 32.5749 41.8026 33.9182 42.325 35.1495C42.8474 36.3435 43.7802 37.2764 45.0489 37.9853C46.3175 38.6943 48.1459 39.0301 50.4593 39.0301C52.0638 39.0301 53.4817 38.8809 54.6758 38.6197C54.7877 38.5824 54.9743 38.545 55.0862 38.5077L56.6161 32.1271C56.0937 32.3137 55.5713 32.4256 55.0862 32.5003C54.3399 32.6495 53.5564 32.7241 52.7355 32.7241Z" fill="#2A3F90"/>
<path d="M34.0414 11.7539L27.5488 38.9927H34.8996L41.3548 11.7539H34.0414Z" fill="#2A3F90"/>
<path d="M42.1388 8.61966L43.2582 3.88086H35.9075L34.7881 8.61966H42.1388Z" fill="#2A3F90"/>
<path d="M17.7728 11.791C19.3399 11.791 20.7205 12.0896 21.8773 12.6493C23.034 13.209 23.9668 13.9552 24.7504 14.9254C25.4967 15.8955 26.0564 17.0149 26.4295 18.2836C26.8026 19.5522 26.9892 20.9328 26.9892 22.4254C26.9892 24.7015 26.5788 26.8284 25.7205 28.8806C24.8623 30.8955 23.7429 32.6866 22.2877 34.1791C20.8325 35.6716 19.1161 36.8657 17.1385 37.7239C15.1608 38.5821 13.034 39.0299 10.7205 39.0299C10.422 39.0299 9.89965 39.0299 9.15338 38.9925C8.40711 38.9925 7.5489 38.9179 6.61607 38.7687C5.64592 38.6194 4.63845 38.4328 3.59368 38.1716C2.51159 37.9104 1.50412 37.5373 0.571289 37.0896L9.11607 1.19403L16.7653 0L13.7429 12.7239C14.4146 12.4254 15.0116 12.2015 15.6832 12.0522C16.3176 11.8657 17.0265 11.791 17.7728 11.791ZM11.3549 32.9104C12.5116 32.9104 13.5937 32.6493 14.6011 32.0522C15.6086 31.4925 16.5041 30.7463 17.2504 29.8134C17.9967 28.8806 18.5937 27.7985 19.0041 26.6418C19.4146 25.4478 19.6385 24.2164 19.6385 22.9478C19.6385 21.3806 19.3773 20.1493 18.8549 19.2537C18.3325 18.3582 17.2504 17.9478 15.8325 17.9478C15.3847 17.9478 14.8996 17.9851 14.1534 18.1716C13.4071 18.3209 12.7728 18.694 12.1758 19.2164L8.96681 32.7612C9.93696 32.9104 10.9817 32.9104 11.3549 32.9104Z" fill="#2A3F90"/>
</g>
<defs>
<clipPath id="clip0_562_3709">
<rect width="141.418" height="50" fill="white" transform="translate(0.571289)"/>
</clipPath>
</defs>
</svg>
