<svg width="57" height="50" viewBox="0 0 57 50" fill="none" xmlns="http://www.w3.org/2000/svg">
<g clip-path="url(#clip0_562_3745)">
<path d="M35.0837 0H21.0081C20.5377 0 20.1609 0.390526 20.1506 0.875949C19.8663 14.5207 12.9505 27.4711 1.04712 36.644C0.669204 36.9351 0.583107 37.4822 0.859396 37.8763L9.09481 49.6306C9.37499 50.0306 9.92086 50.1208 10.3051 49.8269C17.748 44.1289 23.7346 37.255 28.0459 29.6361C32.3571 37.255 38.3441 44.1289 45.787 49.8269C46.1709 50.1208 46.7169 50.0306 46.9974 49.6306L55.2328 37.8763C55.5087 37.4822 55.4225 36.9351 55.045 36.644C43.1413 27.4711 36.2256 14.5207 35.9416 0.875949C35.9313 0.390526 35.5541 0 35.0837 0Z" fill="#FF875B"/>
</g>
<defs>
<clipPath id="clip0_562_3745">
<rect width="55.5556" height="50" fill="white" transform="translate(0.697266)"/>
</clipPath>
</defs>
</svg>
