<svg width="51" height="50" viewBox="0 0 51 50" fill="none" xmlns="http://www.w3.org/2000/svg">
<path d="M11.8026 25L6.1901 30.6146L0.523438 25L6.18802 19.3354L11.8026 25ZM25.5234 11.2792L35.1901 20.9458L40.8568 15.2833L25.5234 0L10.1901 15.3333L15.8568 20.9958L25.5234 11.2792ZM44.8589 19.3354L39.2443 25L44.9089 30.6646L50.5714 25L44.8589 19.3354ZM25.5234 38.7208L15.8568 29.0042L10.1901 34.6688L25.5234 50L40.8568 34.6667L35.1901 29.0042L25.5234 38.7208ZM25.5234 30.6167L31.188 24.95L25.5234 19.3375L19.8589 25L25.5234 30.6146V30.6167Z" fill="#EEB90B"/>
</svg>
