<svg width="24" height="25" viewBox="0 0 24 25" fill="none" xmlns="http://www.w3.org/2000/svg">
<path d="M20.4908 11.6432C20.8361 12.1696 20.8361 12.8304 20.4908 13.3568C19.4032 15.0146 16.5729 18.5 11.9999 18.5C7.4269 18.5 4.5966 15.0146 3.50898 13.3568C3.16367 12.8304 3.16367 12.1696 3.50898 11.6432C4.5966 9.98535 7.4269 6.5 11.9999 6.5C16.5729 6.5 19.4032 9.98535 20.4908 11.6432Z" stroke="#6F6F6F" stroke-width="1.25" stroke-linecap="round"/>
<path d="M15 12.5C15 14.1569 13.6568 15.5 12 15.5C10.3431 15.5 9 14.1569 9 12.5C9 10.8431 10.3431 9.5 12 9.5C13.6568 9.5 15 10.8431 15 12.5Z" stroke="#6F6F6F" stroke-width="1.25" stroke-linecap="round"/>
</svg>
