<svg width="54" height="50" viewBox="0 0 54 50" fill="none" xmlns="http://www.w3.org/2000/svg">
<path d="M49.9032 2.27344L29.9941 17.0007L33.7063 8.31889L49.9032 2.27344Z" fill="#E17726" stroke="#E17726" stroke-width="0.25" stroke-linecap="round" stroke-linejoin="round"/>
<path d="M3.99278 2.27344L23.7201 17.1219L20.1897 8.33404L3.99278 2.27344ZM42.7352 36.4098L37.4322 44.5007L48.7807 47.6219L52.0231 36.5916L42.7352 36.4098ZM1.88672 36.5916L5.11399 47.6219L16.4322 44.5007L11.1594 36.4098L1.88672 36.5916Z" fill="#E27625" stroke="#E27625" stroke-width="0.25" stroke-linecap="round" stroke-linejoin="round"/>
<path d="M15.8263 22.7417L12.6748 27.4992L23.8869 28.0144L23.5233 15.9386L15.8263 22.7568V22.7417ZM38.0687 22.7568L30.2506 15.7871L29.993 28.0144L41.2051 27.4992L38.0687 22.7568ZM16.4324 44.4992L23.2354 41.2265L17.3869 36.681L16.4324 44.4992ZM30.6748 41.2114L37.4324 44.4992L36.5233 36.6659L30.6748 41.2114Z" fill="#E27625" stroke="#E27625" stroke-width="0.25" stroke-linecap="round" stroke-linejoin="round"/>
<path d="M37.4326 44.5012L30.675 41.2285L31.2205 45.6225L31.1599 47.4861L37.4326 44.5012ZM16.4326 44.5012L22.7356 47.4861L22.6902 45.6225L23.2356 41.2285L16.4326 44.5012Z" fill="#D5BFB2" stroke="#D5BFB2" stroke-width="0.25" stroke-linecap="round" stroke-linejoin="round"/>
<path d="M22.8424 33.7588L17.2363 32.1224L21.206 30.3042L22.8575 33.7588H22.8424ZM31.0394 33.7588L32.706 30.2891L36.6909 32.1072L31.0394 33.7739V33.7588Z" fill="#233447" stroke="#233447" stroke-width="0.25" stroke-linecap="round" stroke-linejoin="round"/>
<path d="M16.4319 44.5L17.4168 36.4091L11.1592 36.5909L16.4319 44.5ZM36.4774 36.4091L37.4319 44.5L42.7349 36.5909L36.4774 36.4091ZM41.2198 27.5L30.0077 28.0152L31.038 33.7727L32.7046 30.2879L36.6895 32.1061L41.2198 27.5ZM17.2349 32.1212L21.2046 30.303L22.8561 33.7576L23.9016 28L12.6895 27.5L17.2349 32.1212Z" fill="#CC6228" stroke="#CC6228" stroke-width="0.25" stroke-linecap="round" stroke-linejoin="round"/>
<path d="M12.6904 27.5L17.3874 36.6667L17.2359 32.1212L12.6904 27.5ZM36.6904 32.1212L36.5086 36.6667L41.2056 27.5L36.6904 32.1212ZM23.9026 28.0152L22.8419 33.7727L24.1753 40.5606L24.4783 31.6061L23.9026 28.0152ZM29.9935 28.0152L29.448 31.5909L29.7207 40.5606L31.0389 33.7576L29.9935 28V28.0152Z" fill="#E27525" stroke="#E27525" stroke-width="0.25" stroke-linecap="round" stroke-linejoin="round"/>
<path d="M31.0379 33.7555L29.7197 40.5585L30.6743 41.2252L36.5076 36.6797L36.6894 32.1191L31.0379 33.7555ZM17.2349 32.1191L17.3864 36.6646L23.2349 41.21L24.1743 40.5585L22.8561 33.7555L17.2197 32.1191H17.2349Z" fill="#F5841F" stroke="#F5841F" stroke-width="0.25" stroke-linecap="round" stroke-linejoin="round"/>
<path d="M31.175 47.4829L31.2205 45.6193L30.7053 45.195H23.1902L22.6902 45.6193L22.7356 47.4829L16.4326 44.498L18.6447 46.3162L23.1144 49.392H30.766L35.2508 46.3011L37.4326 44.498L31.1599 47.4829H31.175Z" fill="#C0AC9D" stroke="#C0AC9D" stroke-width="0.25" stroke-linecap="round" stroke-linejoin="round"/>
<path d="M30.6753 41.2121L29.7207 40.5605H24.1753L23.2359 41.2272L22.6904 45.6212L23.1904 45.1969H30.7056L31.2207 45.6212L30.6753 41.2272V41.2121Z" fill="#161616" stroke="#161616" stroke-width="0.25" stroke-linecap="round" stroke-linejoin="round"/>
<path d="M50.7512 17.9553L52.4179 9.8492L49.9028 2.27344L30.6603 16.5159L38.0694 22.7431L48.524 25.7886L50.827 23.1068L49.827 22.3795L51.4179 20.925L50.2058 19.9856L51.7967 18.7734L50.7361 17.9553H50.7512ZM1.47852 9.83404L3.17549 17.9553L2.08458 18.7583L3.70579 19.9704L2.49367 20.925L4.06942 22.3795L3.06942 23.1068L5.37245 25.7886L15.827 22.7583L23.2361 16.5007L3.99367 2.27344L1.47852 9.83404Z" fill="#763E1A" stroke="#763E1A" stroke-width="0.25" stroke-linecap="round" stroke-linejoin="round"/>
<path d="M48.5231 25.7881L38.0685 22.7578L41.2201 27.5002L36.5231 36.6668L42.7352 36.5911H52.0231L48.5231 25.7881ZM15.8261 22.7426L5.37157 25.7881L1.88672 36.5911H11.1746L17.3867 36.6668L12.6897 27.5002L15.8413 22.7426H15.8261ZM29.9928 28.0153L30.6746 16.5002L33.7049 8.31836H20.1897L23.2201 16.5002L23.9019 28.0153L24.1594 31.6214V40.5608H29.7201L29.7504 31.6214L29.9928 28.0153Z" fill="#F5841F" stroke="#F5841F" stroke-width="0.25" stroke-linecap="round" stroke-linejoin="round"/>
</svg>
