<svg width="281" height="50" viewBox="0 0 281 50" fill="none" xmlns="http://www.w3.org/2000/svg">
<path d="M56.7447 13.9591C46.5764 13.9591 38.6314 21.678 38.6314 32.0112C38.6314 42.3446 46.3757 49.9974 56.7447 49.9974C67.1136 49.9974 74.9925 42.2125 74.9925 31.9452C74.9925 21.744 67.2482 13.9591 56.7447 13.9591ZM56.8132 42.5505C51.0228 42.5505 46.7796 38.0533 46.7796 32.0138C46.7796 25.9058 50.9542 21.4112 56.7447 21.4112C62.6036 21.4112 66.8443 25.9744 66.8443 32.0138C66.8443 38.0533 62.6036 42.5505 56.8132 42.5505ZM77.2132 21.8126H82.2639V49.3292H90.3436V14.6298H77.2132V21.8126ZM18.2975 21.4086C22.5407 21.4086 25.9071 24.0256 27.1852 27.918H35.7375C34.1876 19.597 27.3199 13.9591 18.3661 13.9591C8.19793 13.9591 0.25293 21.678 0.25293 32.0138C0.25293 42.3497 7.99723 50 18.3661 50C27.1191 50 34.1215 44.362 35.6714 35.9723H27.1852C25.9732 39.8648 22.6067 42.5505 18.3636 42.5505C12.5046 42.5505 8.39863 38.0533 8.39863 32.0138C8.40121 25.9058 12.4411 21.4086 18.2975 21.4086ZM230.732 28.6574L224.807 27.7859C221.979 27.3845 219.959 26.4445 219.959 24.2289C219.959 21.8126 222.587 20.6057 226.154 20.6057C230.059 20.6057 232.551 22.2827 233.09 25.0343H240.901C240.024 18.0548 234.637 13.9616 226.357 13.9616C217.804 13.9616 212.149 18.3241 212.149 24.4982C212.149 30.403 215.853 33.828 223.326 34.9002L229.251 35.7716C232.147 36.173 233.763 37.3164 233.763 39.4634C233.763 42.2151 230.936 43.3559 227.03 43.3559C222.248 43.3559 219.555 41.4096 219.151 38.4573H211.206C211.948 45.236 217.266 50 226.962 50C235.783 50 241.64 45.9729 241.64 39.0594C241.64 32.8853 237.399 29.6636 230.732 28.6574ZM86.3037 0.335383C83.3412 0.335383 81.1186 2.48234 81.1186 5.43473C81.1186 8.38711 83.3389 10.5341 86.3037 10.5341C89.2662 10.5341 91.4896 8.38711 91.4896 5.43473C91.4896 2.48234 89.2662 0.335383 86.3037 0.335383ZM204.877 26.5105C204.877 18.9948 200.299 13.9616 190.603 13.9616C181.446 13.9616 176.329 18.5934 175.318 25.7076H183.331C183.735 22.9559 185.89 20.6743 190.469 20.6743C194.577 20.6743 196.597 22.4859 196.597 24.7015C196.597 27.5878 192.892 28.3246 188.314 28.7947C182.119 29.4654 174.444 31.6123 174.444 39.6666C174.444 45.9094 179.09 49.9339 186.497 49.9339C192.287 49.9339 195.923 47.5177 197.743 43.6912C198.012 47.1137 200.571 49.3292 204.14 49.3292H208.854V42.149H204.879V26.5105H204.877ZM196.932 35.2355C196.932 39.8673 192.892 43.2898 187.976 43.2898C184.945 43.2898 182.387 42.0143 182.387 39.3313C182.387 35.9088 186.494 34.9688 190.265 34.5673C193.901 34.232 195.921 33.4265 196.932 31.8817V35.2355ZM154.041 13.9591C149.529 13.9591 145.758 15.8392 143.065 18.9923V0H134.986V49.3292H142.93V44.766C145.623 48.0537 149.463 50 154.041 50C163.737 50 171.077 42.3497 171.077 32.0138C171.077 21.678 163.602 13.9591 154.041 13.9591ZM152.829 42.5505C147.039 42.5505 142.796 38.0533 142.796 32.0138C142.796 25.9744 147.105 21.4112 152.895 21.4112C158.755 21.4112 162.86 25.9084 162.86 32.0138C162.86 38.0533 158.619 42.5505 152.829 42.5505ZM115.66 13.9591C110.408 13.9591 106.973 16.106 104.954 19.127V14.6298H96.9397V49.3267H105.019V30.4691C105.019 25.1664 108.386 21.4086 113.369 21.4086C118.015 21.4086 120.909 24.6964 120.909 29.4629V49.3292H128.989V28.8607C128.992 20.1331 124.482 13.9591 115.66 13.9591ZM280.155 30.873C280.155 20.9411 272.883 13.9616 263.119 13.9616C252.751 13.9616 245.141 21.7466 245.141 32.0138C245.141 42.8198 253.289 50 263.254 50C271.672 50 278.27 45.0328 279.952 37.9872H271.534C270.322 41.0742 267.36 42.8198 263.387 42.8198C258.201 42.8198 254.295 39.598 253.421 33.9601H280.153V30.873H280.155ZM253.894 28.1874C255.175 23.3548 258.81 21.0072 262.985 21.0072C267.563 21.0072 271.065 23.6241 271.872 28.1874H253.894Z" fill="#0052FF"/>
</svg>
