<svg width="189" height="28" viewBox="0 0 189 28" fill="none" xmlns="http://www.w3.org/2000/svg">
<path d="M68.5557 24.3488V28H88.4991V24.3488H68.5557ZM68.5557 0.93808V4.58929H88.4991V0.93808H68.5557ZM68.5557 12.6434V16.2946H86.824V12.6434H68.5557Z" fill="#EEB90B"/>
<path d="M65.222 0.93808L57.4541 25.8356C57.0524 27.1231 55.8603 28 54.5115 28C53.2136 28 52.0548 27.187 51.6131 25.9665L45.0796 7.91319L38.6803 25.9717C38.2495 27.1875 37.0995 28 35.8097 28C34.4771 28 33.2993 27.1337 32.9024 25.8616L25.1265 0.93808H29.8592L36.1063 21.6347L42.157 3.05329C42.5677 1.79186 43.7436 0.93808 45.0703 0.93808C46.3876 0.93808 47.5574 1.78012 47.9756 3.0293L54.2042 21.6347L60.4135 0.93808H65.222Z" fill="#EEB90B"/>
<path d="M111.96 28L103.634 16.9973L95.3605 28H90.7759L101.262 14.3267L91.2501 1.08075H95.9401L103.739 11.3891L111.433 1.08075H116.07L106.058 14.1131L116.544 28H111.96Z" fill="#EEB90B"/>
<path fill-rule="evenodd" clip-rule="evenodd" d="M15.4905 1.26174C15.0562 1.05252 14.574 0.93808 14.0738 0.93808C12.7724 0.93808 11.5926 1.71286 11.0621 2.91598L0 28H4.11892L6.75925 21.8252L8.29064 18.2813L13.4202 6.25611L15.4905 1.26174ZM15.5941 8.68297L19.6441 18.2276L21.1227 21.7715L23.763 27.9463H28.1459L17.5495 3.96581L15.5941 8.68297ZM17.8828 23.3712L13.9225 15.0339L9.9623 23.3712L17.8828 23.3712Z" fill="#EEB90B"/>
<rect x="122.657" y="1" width="66.3429" height="27" rx="13.5" fill="#EEB90B"/>
<path d="M148.297 18.1822C148.297 18.9471 148.101 19.6147 147.708 20.185C147.315 20.7552 146.782 21.2003 146.109 21.5202C145.449 21.8401 144.72 22 143.92 22H136.828V7.18776H144.257C144.958 7.18776 145.561 7.37552 146.066 7.75104C146.586 8.11266 146.978 8.58554 147.245 9.16968C147.525 9.73992 147.666 10.338 147.666 10.9638C147.666 11.6871 147.476 12.3686 147.098 13.0083C146.733 13.6342 146.207 14.1001 145.519 14.4061C146.375 14.6565 147.048 15.1224 147.54 15.8039C148.045 16.4715 148.297 17.2643 148.297 18.1822ZM146.382 17.8484C146.382 17.3894 146.277 16.9652 146.066 16.5758C145.87 16.1864 145.596 15.8734 145.246 15.637C144.909 15.4006 144.516 15.2823 144.067 15.2823H138.722V20.3727H143.92C144.383 20.3727 144.797 20.2545 145.162 20.0181C145.54 19.7816 145.835 19.4757 146.045 19.1001C146.27 18.7107 146.382 18.2935 146.382 17.8484ZM138.722 8.81502V13.7594H143.478C143.927 13.7594 144.32 13.6481 144.656 13.4256C145.007 13.2031 145.281 12.904 145.477 12.5285C145.688 12.153 145.793 11.7427 145.793 11.2976C145.793 10.8248 145.695 10.4075 145.498 10.0459C145.316 9.67038 145.056 9.37135 144.72 9.14882C144.397 8.92629 144.025 8.81502 143.604 8.81502H138.722Z" fill="white"/>
<path d="M150.126 22C150.126 21.1655 150.196 20.4284 150.336 19.7886C150.491 19.1349 150.708 18.5508 150.989 18.0362C151.283 17.5216 151.634 17.0695 152.041 16.6801C152.448 16.2907 152.911 15.943 153.43 15.637C153.977 15.3171 154.538 15.025 155.113 14.7608C155.688 14.4965 156.222 14.2184 156.713 13.9263C157.204 13.6342 157.596 13.2865 157.891 12.8832C158.2 12.4659 158.354 11.9513 158.354 11.3394C158.354 10.8526 158.249 10.4145 158.038 10.025C157.828 9.6217 157.512 9.30181 157.091 9.06537C156.67 8.82893 156.13 8.71071 155.471 8.71071C154.812 8.71071 154.215 8.82198 153.682 9.04451C153.163 9.26704 152.714 9.53129 152.335 9.83727C151.957 10.1433 151.655 10.4353 151.431 10.7135L150.231 9.52434C150.343 9.38526 150.54 9.17663 150.82 8.89847C151.115 8.62031 151.487 8.33519 151.936 8.04312C152.399 7.75104 152.939 7.50765 153.556 7.31293C154.173 7.10431 154.875 7 155.66 7C156.713 7 157.589 7.19471 158.291 7.58414C158.992 7.97357 159.518 8.49513 159.869 9.14882C160.234 9.8025 160.416 10.5257 160.416 11.3185C160.416 12.0278 160.283 12.6398 160.016 13.1544C159.75 13.6551 159.406 14.0793 158.985 14.427C158.564 14.7747 158.101 15.0807 157.596 15.3449C157.105 15.6092 156.628 15.8595 156.165 16.096C155.282 16.5132 154.58 16.8957 154.061 17.2434C153.542 17.5911 153.142 17.9319 152.861 18.2656C152.595 18.5855 152.413 18.9124 152.314 19.2462C152.23 19.58 152.181 19.9416 152.167 20.331H160.437V22H150.126Z" fill="white"/>
<path d="M174.828 18.1822C174.828 18.9471 174.632 19.6147 174.239 20.185C173.846 20.7552 173.313 21.2003 172.64 21.5202C171.98 21.8401 171.251 22 170.451 22H163.359V7.18776H170.788C171.489 7.18776 172.092 7.37552 172.597 7.75104C173.117 8.11266 173.509 8.58554 173.776 9.16968C174.057 9.73992 174.197 10.338 174.197 10.9638C174.197 11.6871 174.007 12.3686 173.629 13.0083C173.264 13.6342 172.738 14.1001 172.05 14.4061C172.906 14.6565 173.58 15.1224 174.071 15.8039C174.576 16.4715 174.828 17.2643 174.828 18.1822ZM172.913 17.8484C172.913 17.3894 172.808 16.9652 172.597 16.5758C172.401 16.1864 172.127 15.8734 171.777 15.637C171.44 15.4006 171.047 15.2823 170.598 15.2823H165.253V20.3727H170.451C170.914 20.3727 171.328 20.2545 171.693 20.0181C172.071 19.7816 172.366 19.4757 172.576 19.1001C172.801 18.7107 172.913 18.2935 172.913 17.8484ZM165.253 8.81502V13.7594H170.009C170.458 13.7594 170.851 13.6481 171.188 13.4256C171.538 13.2031 171.812 12.904 172.008 12.5285C172.219 12.153 172.324 11.7427 172.324 11.2976C172.324 10.8248 172.226 10.4075 172.029 10.0459C171.847 9.67038 171.587 9.37135 171.251 9.14882C170.928 8.92629 170.556 8.81502 170.135 8.81502H165.253Z" fill="white"/>
</svg>
