<svg width="24" height="24" viewBox="0 0 24 24" fill="none" xmlns="http://www.w3.org/2000/svg">
<g id="chart-pie">
<path id="chart-pie_2" d="M21.7334 9.76985C21.1914 5.89485 18.1064 2.80975 14.2314 2.26875C13.7374 2.19875 13.2344 2.34976 12.8534 2.67976C12.4694 3.01376 12.2494 3.49478 12.2494 4.00178V10.0098C12.2494 10.9698 13.0304 11.7518 13.9914 11.7518H20.0004C20.5064 11.7518 20.9884 11.5318 21.3214 11.1488C21.6524 10.7678 21.8024 10.2659 21.7334 9.76985ZM20.1894 10.1628C20.1614 10.1958 20.0984 10.2508 20.0004 10.2508H13.9924C13.8584 10.2508 13.7504 10.1429 13.7504 10.0089V4.00081C13.7504 3.90181 13.8054 3.83887 13.8384 3.81087C13.8654 3.78687 13.9184 3.75081 13.9924 3.75081C14.0024 3.75081 14.0134 3.75176 14.0234 3.75276C14.0244 3.75276 14.0244 3.75276 14.0244 3.75276C17.2384 4.20176 19.7974 6.76176 20.2474 9.97676C20.2604 10.0668 20.2174 10.1318 20.1894 10.1628ZM18.0444 12.6578H12.0934C11.6804 12.6578 11.3434 12.3218 11.3434 11.9078V5.95686C11.3434 5.44186 11.1144 4.95879 10.7154 4.63179C10.3244 4.31279 9.81944 4.18379 9.32744 4.28279C7.04544 4.74079 4.99643 6.12576 3.70543 8.08076C2.40043 10.0578 1.9534 12.4498 2.4464 14.8148C3.1414 18.1498 5.84941 20.8578 9.18541 21.5538C9.81341 21.6848 10.4434 21.7498 11.0664 21.7498C12.7914 21.7498 14.4664 21.2538 15.9194 20.2948C17.8744 19.0038 19.2594 16.9558 19.7174 14.6738C19.8164 14.1838 19.6904 13.6768 19.3694 13.2858C19.0424 12.8868 18.5594 12.6578 18.0444 12.6578ZM15.0934 19.0438C13.4524 20.1278 11.4614 20.4988 9.49242 20.0858C6.73142 19.5098 4.49039 17.2689 3.91539 14.5089C3.50439 12.5379 3.87438 10.5488 4.95738 8.90681C6.02938 7.28281 7.72942 6.13386 9.62242 5.75386C9.63442 5.75186 9.6444 5.75081 9.65441 5.75081C9.7024 5.75081 9.73941 5.7718 9.76341 5.7928C9.78741 5.8118 9.84239 5.86686 9.84239 5.95686V11.9078C9.84239 13.1488 10.8524 14.1578 12.0924 14.1578H18.0434C18.1334 14.1578 18.1884 14.2128 18.2074 14.2368C18.2314 14.2668 18.2584 14.3158 18.2454 14.3798C17.8664 16.2718 16.7174 17.9718 15.0934 19.0438Z" fill="#292421"/>
</g>
</svg>
