<svg width="27" height="25" viewBox="0 0 27 25" fill="none" xmlns="http://www.w3.org/2000/svg">
<g id="chat icon">
<path id="Vector" d="M3.82843 1.7858C3.40091 1.7858 2.9909 1.95563 2.6886 2.25793C2.38629 2.56024 2.21646 2.97025 2.21646 3.39777V16.2935C2.21646 16.7211 2.38629 17.1311 2.6886 17.4334C2.9909 17.7357 3.40091 17.9055 3.82843 17.9055H19.2808C20.1358 17.9057 20.9556 18.2455 21.5601 18.8501L24.784 22.0741V3.39777C24.784 2.97025 24.6142 2.56024 24.3119 2.25793C24.0096 1.95563 23.5996 1.7858 23.1721 1.7858H3.82843ZM23.1721 0.173828C24.0271 0.173828 24.8471 0.513492 25.4517 1.1181C26.0564 1.7227 26.396 2.54273 26.396 3.39777V24.0197C26.396 24.1792 26.3486 24.3351 26.26 24.4676C26.1713 24.6002 26.0453 24.7035 25.8979 24.7644C25.7505 24.8253 25.5884 24.8411 25.432 24.8099C25.2756 24.7786 25.132 24.7016 25.0194 24.5887L20.4204 19.9898C20.1182 19.6875 19.7083 19.5176 19.2808 19.5175H3.82843C2.97339 19.5175 2.15337 19.1778 1.54876 18.5732C0.944156 17.9686 0.604492 17.1486 0.604492 16.2935V3.39777C0.604492 2.54273 0.944156 1.7227 1.54876 1.1181C2.15337 0.513492 2.97339 0.173828 3.82843 0.173828L23.1721 0.173828Z" fill="#292421"/>
<path id="Vector_2" d="M8.66437 9.84635C8.66437 10.2739 8.49454 10.6839 8.19224 10.9862C7.88993 11.2885 7.47992 11.4583 7.0524 11.4583C6.62488 11.4583 6.21487 11.2885 5.91256 10.9862C5.61026 10.6839 5.44043 10.2739 5.44043 9.84635C5.44043 9.41882 5.61026 9.00881 5.91256 8.70651C6.21487 8.40421 6.62488 8.23438 7.0524 8.23438C7.47992 8.23438 7.88993 8.40421 8.19224 8.70651C8.49454 9.00881 8.66437 9.41882 8.66437 9.84635ZM15.1123 9.84635C15.1123 10.2739 14.9424 10.6839 14.6401 10.9862C14.3378 11.2885 13.9278 11.4583 13.5003 11.4583C13.0728 11.4583 12.6628 11.2885 12.3604 10.9862C12.0581 10.6839 11.8883 10.2739 11.8883 9.84635C11.8883 9.41882 12.0581 9.00881 12.3604 8.70651C12.6628 8.40421 13.0728 8.23438 13.5003 8.23438C13.9278 8.23438 14.3378 8.40421 14.6401 8.70651C14.9424 9.00881 15.1123 9.41882 15.1123 9.84635ZM21.5601 9.84635C21.5601 10.2739 21.3903 10.6839 21.088 10.9862C20.7857 11.2885 20.3757 11.4583 19.9482 11.4583C19.5206 11.4583 19.1106 11.2885 18.8083 10.9862C18.506 10.6839 18.3362 10.2739 18.3362 9.84635C18.3362 9.41882 18.506 9.00881 18.8083 8.70651C19.1106 8.40421 19.5206 8.23438 19.9482 8.23438C20.3757 8.23438 20.7857 8.40421 21.088 8.70651C21.3903 9.00881 21.5601 9.41882 21.5601 9.84635Z" fill="#292421"/>
</g>
</svg>
