<svg width="24" height="25" viewBox="0 0 24 25" fill="none" xmlns="http://www.w3.org/2000/svg">
<g id="lock">
<path id="lock_2" d="M16.75 8.80396V7.5C16.75 4.881 14.619 2.75 12 2.75C9.381 2.75 7.25 4.881 7.25 7.5V8.80396C5.312 9.06096 4.25 10.346 4.25 12.5V18.5C4.25 20.918 5.582 22.25 8 22.25H16C18.418 22.25 19.75 20.918 19.75 18.5V12.5C19.75 10.347 18.688 9.06195 16.75 8.80396ZM12 4.25C13.792 4.25 15.25 5.708 15.25 7.5V8.75H8.75V7.5C8.75 5.708 10.208 4.25 12 4.25ZM18.25 18.5C18.25 20.077 17.577 20.75 16 20.75H8C6.423 20.75 5.75 20.077 5.75 18.5V12.5C5.75 10.923 6.423 10.25 8 10.25H16C17.577 10.25 18.25 10.923 18.25 12.5V18.5ZM13.27 14.5C13.27 14.912 13.058 15.2601 12.75 15.4871V17.5C12.75 17.914 12.414 18.25 12 18.25C11.586 18.25 11.25 17.914 11.25 17.5V15.4619C10.962 15.2329 10.7649 14.895 10.7649 14.5C10.7649 13.81 11.32 13.25 12.01 13.25H12.02C12.71 13.25 13.27 13.81 13.27 14.5Z" fill="#6F6F6F"/>
</g>
</svg>
