<svg width="15" height="10" viewBox="0 0 15 10" fill="none" xmlns="http://www.w3.org/2000/svg">
<path id="Vector" d="M12.0691 3.57183C12.0691 3.38252 11.9919 3.20097 11.8544 3.06711C11.717 2.93325 11.5305 2.85805 11.3361 2.85805L2.83976 2.85805L4.52583 1.22349C4.66387 1.08908 4.74142 0.906783 4.74142 0.716702C4.74142 0.526621 4.66387 0.344325 4.52583 0.209917C4.38779 0.0755095 4.20056 1.41622e-09 4.00534 0C3.81013 -1.41622e-09 3.6229 0.0755095 3.48486 0.209917L0.55257 3.06504C0.450851 3.16542 0.381945 3.29288 0.354547 3.43135C0.327149 3.56981 0.342487 3.71308 0.398625 3.84307C0.45362 3.97342 0.547012 4.085 0.667031 4.16375C0.78705 4.24251 0.928325 4.28491 1.07305 4.28561L11.3361 4.28561C11.5305 4.28561 11.717 4.21041 11.8544 4.07655C11.9919 3.94269 12.0691 3.76113 12.0691 3.57183ZM14.9428 6.15572C14.8878 6.02537 14.7944 5.91378 14.6744 5.83503C14.5544 5.75628 14.4131 5.71388 14.2684 5.71317L4.00534 5.71317C3.81092 5.71317 3.62446 5.78837 3.48698 5.92223C3.34951 6.05609 3.27227 6.23765 3.27227 6.42695C3.27227 6.61626 3.34951 6.79781 3.48698 6.93167C3.62446 7.06553 3.81092 7.14074 4.00534 7.14074L12.5017 7.14074L10.8156 8.7753C10.7469 8.84165 10.6923 8.9206 10.6551 9.00758C10.6179 9.09456 10.5987 9.18785 10.5987 9.28208C10.5987 9.37631 10.6179 9.4696 10.6551 9.55658C10.6923 9.64356 10.7469 9.72251 10.8156 9.78886C10.8837 9.85577 10.9648 9.90887 11.0541 9.94511C11.1435 9.98134 11.2393 10 11.3361 10C11.4328 10 11.5287 9.98134 11.618 9.94511C11.7073 9.90887 11.7884 9.85577 11.8566 9.78886L14.7888 6.93374C14.8906 6.83336 14.9595 6.7059 14.9869 6.56744C15.0143 6.42897 14.9989 6.2857 14.9428 6.15572Z" fill="#6F6F6F"/>
</svg>
