<?xml version="1.0" standalone="no"?>
<!DOCTYPE svg PUBLIC "-//W3C//DTD SVG 20010904//EN"
 "http://www.w3.org/TR/2001/REC-SVG-20010904/DTD/svg10.dtd">
<svg version="1.0" xmlns="http://www.w3.org/2000/svg"
 width="700.000000pt" height="700.000000pt" viewBox="0 0 700.000000 700.000000"
 preserveAspectRatio="xMidYMid meet">
<metadata>
Created by potrace 1.14, written by Peter Selinger 2001-2017
</metadata>
<g transform="translate(0.000000,700.000000) scale(0.100000,-0.100000)"
fill="#000000" stroke="none">
<path d="M3410 5197 c-30 -7 -77 -23 -105 -37 -66 -32 -155 -122 -188 -190
-21 -44 -1405 -3114 -1424 -3158 -4 -10 50 -12 263 -10 l268 3 244 555 c448
1024 979 2243 1097 2523 96 226 115 281 104 288 -47 30 -181 44 -259 26z"/>
<path d="M3934 4804 c-4 -10 -60 -144 -125 -296 l-117 -277 175 -403 c96 -222
275 -637 398 -923 123 -286 280 -648 349 -805 l124 -285 287 -3 c270 -2 285
-1 277 15 -5 10 -310 684 -677 1498 -367 814 -671 1484 -676 1489 -5 6 -11 1
-15 -10z"/>
<path d="M3260 3043 c-118 -251 -216 -460 -218 -465 -2 -4 190 -8 427 -8 237
0 431 3 431 8 0 12 -414 922 -420 922 -3 0 -102 -205 -220 -457z"/>
</g>
</svg>
