<svg width="23" height="22" viewBox="0 0 23 22" fill="none" xmlns="http://www.w3.org/2000/svg">
<path d="M11.5 0.25C5.572 0.25 0.75 5.073 0.75 11C0.75 16.927 5.572 21.75 11.5 21.75C17.428 21.75 22.25 16.927 22.25 11C22.25 5.073 17.428 0.25 11.5 0.25ZM20.712 10.25H16.662C16.531 7.507 15.687 4.71201 14.227 2.16101C17.77 3.25701 20.403 6.43 20.712 10.25ZM12.23 1.78699C13.986 4.39799 15.009 7.36 15.162 10.25H7.83801C7.99001 7.36 9.01399 4.39799 10.77 1.78699C11.012 1.76799 11.254 1.75 11.5 1.75C11.746 1.75 11.989 1.76799 12.23 1.78699ZM8.77301 2.16101C7.31301 4.71201 6.46901 7.507 6.33801 10.25H2.28799C2.59699 6.43 5.23001 3.25701 8.77301 2.16101ZM2.28799 11.75H6.33801C6.46901 14.493 7.31301 17.288 8.77301 19.839C5.23001 18.743 2.59699 15.57 2.28799 11.75ZM10.77 20.213C9.01399 17.602 7.99101 14.64 7.83801 11.75H15.162C15.01 14.64 13.986 17.602 12.23 20.213C11.988 20.232 11.746 20.25 11.5 20.25C11.254 20.25 11.011 20.232 10.77 20.213ZM14.227 19.839C15.687 17.288 16.531 14.493 16.662 11.75H20.712C20.403 15.57 17.77 18.743 14.227 19.839Z" fill="#33A02C"/>
</svg>
