<svg width="25" height="15" viewBox="0 0 25 15" fill="none" xmlns="http://www.w3.org/2000/svg">
<path fill-rule="evenodd" clip-rule="evenodd" d="M24.001 1.01571C24.1677 0.430714 24.001 0 23.2024 0H20.5657C19.8947 0 19.5854 0.371786 19.4176 0.782143C19.4176 0.782143 18.0766 4.20643 16.1772 6.43071C15.5625 7.07571 15.2832 7.28036 14.9477 7.28036C14.78 7.28036 14.5279 7.07571 14.5279 6.48964V1.01571C14.5279 0.312857 14.3431 0 13.7846 0H9.63814C9.21928 0 8.96716 0.325714 8.96716 0.635357C8.96716 1.30071 9.91738 1.455 10.0148 3.32786V7.39714C10.0148 8.28964 9.86113 8.45143 9.52564 8.45143C8.63167 8.45143 6.457 5.01107 5.16627 1.07464C4.91615 0.308571 4.66303 0 3.98903 0H1.35031C0.596959 0 0.446289 0.371786 0.446289 0.782143C0.446289 1.51286 1.34026 5.14286 4.60979 9.94393C6.78948 13.2225 9.85812 15 12.6535 15C14.33 15 14.5369 14.6057 14.5369 13.9254V11.4471C14.5369 10.6575 14.6956 10.5 15.227 10.5C15.6187 10.5 16.2887 10.7057 17.8537 12.2861C19.6416 14.16 19.9359 15 20.9424 15H23.5791C24.3325 15 24.7101 14.6057 24.4932 13.8257C24.2541 13.05 23.4003 11.9239 22.2683 10.5879C21.6535 9.82714 20.7314 9.0075 20.4512 8.59714C20.0605 8.07107 20.172 7.83643 20.4512 7.36821C20.4512 7.36821 23.6655 2.62607 24 1.01571H24.001Z" fill="#292421"/>
</svg>
