<svg width="25" height="25" viewBox="0 0 25 25" fill="none" xmlns="http://www.w3.org/2000/svg">
<path d="M12.084 1.62109C6.15598 1.62109 1.33398 6.44409 1.33398 12.3711C1.33398 18.2981 6.15598 23.1211 12.084 23.1211C18.012 23.1211 22.834 18.2981 22.834 12.3711C22.834 6.44409 18.012 1.62109 12.084 1.62109ZM12.084 21.6211C6.98298 21.6211 2.83398 17.4721 2.83398 12.3711C2.83398 7.27009 6.98298 3.12109 12.084 3.12109C17.185 3.12109 21.334 7.27009 21.334 12.3711C21.334 17.4721 17.185 21.6211 12.084 21.6211ZM16.114 9.50708C16.407 9.80008 16.407 10.2751 16.114 10.5681L11.447 15.2351C11.301 15.3811 11.109 15.4551 10.917 15.4551C10.725 15.4551 10.533 15.3821 10.387 15.2351L8.05399 12.9021C7.76099 12.6091 7.76099 12.1341 8.05399 11.8411C8.34699 11.5481 8.82199 11.5481 9.11499 11.8411L10.918 13.6441L15.054 9.50812C15.347 9.21512 15.821 9.21508 16.114 9.50708Z" fill="#33A02C"/>
</svg>
