<svg width="24" height="25" viewBox="0 0 24 25" fill="none" xmlns="http://www.w3.org/2000/svg">
<g clip-path="url(#clip0_1334_6846)">
<path d="M5.00017 19.5L19.0002 5.5M19.0001 9.75709C19.6598 10.4545 20.1563 11.1332 20.4896 11.6411C20.835 12.1674 20.8363 12.8304 20.491 13.3568C19.4034 15.0147 16.5731 18.5 12.0001 18.5C11.4548 18.5 10.9343 18.4504 10.4386 18.3603M13.6521 6.65662C13.1293 6.5558 12.5787 6.50001 12.0001 6.50001C7.42711 6.50001 4.59681 9.98536 3.50919 11.6433C3.16388 12.1696 3.16539 12.833 3.51082 13.3592C3.85155 13.8784 4.36278 14.576 5.0445 15.2897" stroke="#6F6F6F" stroke-width="1.25" stroke-linecap="round"/>
</g>
<defs>
<clipPath id="clip0_1334_6846">
<rect width="24" height="24" fill="white" transform="translate(0 0.5)"/>
</clipPath>
</defs>
</svg>
