<svg width="53" height="24" viewBox="0 0 53 24" fill="none" xmlns="http://www.w3.org/2000/svg">
<g clip-path="url(#clip0_667_12940)">
<path fill-rule="evenodd" clip-rule="evenodd" d="M0.5 0H24.5V24H0.5V0Z" fill="white"/>
<path fill-rule="evenodd" clip-rule="evenodd" d="M0.5 8.00195H24.5V24.0004H0.5V8.00195Z" fill="#0039A6"/>
<path fill-rule="evenodd" clip-rule="evenodd" d="M0.5 15.998H24.5V23.9996H0.5V15.998Z" fill="#D52B1E"/>
</g>
<rect x="1" y="0.5" width="23" height="23" rx="4.5" stroke="#6F6F6F"/>
<path d="M30.924 17.5V6.14H35.724C36.2147 6.14 36.6627 6.24133 37.068 6.444C37.4733 6.64667 37.8253 6.924 38.124 7.276C38.4333 7.61733 38.668 8.00133 38.828 8.428C38.9987 8.844 39.084 9.27067 39.084 9.708C39.084 10.252 38.9773 10.764 38.764 11.244C38.5613 11.724 38.268 12.1293 37.884 12.46C37.5107 12.7907 37.068 13.0093 36.556 13.116L39.34 17.5H38.076L35.404 13.308H32.044V17.5H30.924ZM32.044 12.316H35.756C36.204 12.316 36.5933 12.1933 36.924 11.948C37.2547 11.7027 37.5107 11.3827 37.692 10.988C37.8733 10.5827 37.964 10.156 37.964 9.708C37.964 9.24933 37.8573 8.828 37.644 8.444C37.4413 8.04933 37.164 7.73467 36.812 7.5C36.4707 7.25467 36.0867 7.132 35.66 7.132H32.044V12.316ZM46.0011 17.58C45.1051 17.58 44.3478 17.42 43.7291 17.1C43.1105 16.78 42.6198 16.3533 42.2571 15.82C41.8945 15.276 41.6278 14.6627 41.4571 13.98C41.2971 13.2973 41.2171 12.5933 41.2171 11.868V6.14H42.3211V11.868C42.3211 12.4547 42.3798 13.0307 42.4971 13.596C42.6251 14.1613 42.8278 14.668 43.1051 15.116C43.3825 15.564 43.7558 15.9213 44.2251 16.188C44.6945 16.444 45.2811 16.572 45.9851 16.572C46.7105 16.572 47.3078 16.4387 47.7771 16.172C48.2571 15.8947 48.6305 15.532 48.8971 15.084C49.1745 14.636 49.3718 14.1347 49.4891 13.58C49.6065 13.0147 49.6651 12.444 49.6651 11.868V6.14H50.7851V11.868C50.7851 12.6253 50.6998 13.3507 50.5291 14.044C50.3585 14.7373 50.0811 15.3453 49.6971 15.868C49.3238 16.3907 48.8331 16.8067 48.2251 17.116C47.6171 17.4253 46.8758 17.58 46.0011 17.58Z" fill="#6F6F6F"/>
<defs>
<clipPath id="clip0_667_12940">
<rect x="0.5" width="24" height="24" rx="5" fill="white"/>
</clipPath>
</defs>
</svg>
