<svg width="25" height="24" viewBox="0 0 25 24" fill="none" xmlns="http://www.w3.org/2000/svg">
<g id="lock">
<path id="lock_2" d="M17.417 8.30396V7C17.417 4.381 15.286 2.25 12.667 2.25C10.048 2.25 7.91699 4.381 7.91699 7V8.30396C5.97899 8.56096 4.91699 9.846 4.91699 12V18C4.91699 20.418 6.24899 21.75 8.66699 21.75H16.667C19.085 21.75 20.417 20.418 20.417 18V12C20.417 9.847 19.355 8.56195 17.417 8.30396ZM12.667 3.75C14.459 3.75 15.917 5.208 15.917 7V8.25H9.41699V7C9.41699 5.208 10.875 3.75 12.667 3.75ZM18.917 18C18.917 19.577 18.244 20.25 16.667 20.25H8.66699C7.08999 20.25 6.41699 19.577 6.41699 18V12C6.41699 10.423 7.08999 9.75 8.66699 9.75H16.667C18.244 9.75 18.917 10.423 18.917 12V18ZM13.937 14C13.937 14.412 13.725 14.7601 13.417 14.9871V17C13.417 17.414 13.081 17.75 12.667 17.75C12.253 17.75 11.917 17.414 11.917 17V14.9619C11.629 14.7329 11.4319 14.395 11.4319 14C11.4319 13.31 11.987 12.75 12.677 12.75H12.687C13.377 12.75 13.937 13.31 13.937 14Z" fill="#D1D1D1"/>
</g>
</svg>
