<svg width="24" height="25" viewBox="0 0 24 25" fill="none" xmlns="http://www.w3.org/2000/svg">
<g id="mobile">
<path id="mobile_2" d="M16 22.25H8C5.582 22.25 4.25 20.918 4.25 18.5V6.5C4.25 4.082 5.582 2.75 8 2.75H16C18.418 2.75 19.75 4.082 19.75 6.5V18.5C19.75 20.918 18.418 22.25 16 22.25ZM8 4.25C6.423 4.25 5.75 4.923 5.75 6.5V18.5C5.75 20.077 6.423 20.75 8 20.75H16C17.577 20.75 18.25 20.077 18.25 18.5V6.5C18.25 4.923 17.577 4.25 16 4.25H8ZM14.25 6.5C14.25 6.086 13.914 5.75 13.5 5.75H10.5C10.086 5.75 9.75 6.086 9.75 6.5C9.75 6.914 10.086 7.25 10.5 7.25H13.5C13.914 7.25 14.25 6.914 14.25 6.5ZM12 17.5C11.448 17.5 11 17.948 11 18.5C11 19.052 11.448 19.5 12 19.5C12.552 19.5 13 19.052 13 18.5C13 17.948 12.552 17.5 12 17.5Z" fill="#25314C"/>
</g>
</svg>
