<svg width="35" height="35" viewBox="0 0 35 35" fill="none" xmlns="http://www.w3.org/2000/svg">
<g id="note-text">
<path id="note-text_2" d="M24.7916 31.7188H10.2083C6.682 31.7188 4.7395 29.7763 4.7395 26.25V8.75C4.7395 5.22375 6.682 3.28125 10.2083 3.28125H24.7916C28.3178 3.28125 30.2603 5.22375 30.2603 8.75V26.25C30.2603 29.7763 28.3178 31.7188 24.7916 31.7188ZM10.2083 5.46875C7.90846 5.46875 6.927 6.45021 6.927 8.75V26.25C6.927 28.5498 7.90846 29.5312 10.2083 29.5312H24.7916C27.0914 29.5312 28.0728 28.5498 28.0728 26.25V8.75C28.0728 6.45021 27.0914 5.46875 24.7916 5.46875H10.2083ZM24.427 17.5C24.427 16.8963 23.937 16.4062 23.3333 16.4062H11.6666C11.0628 16.4062 10.5728 16.8963 10.5728 17.5C10.5728 18.1038 11.0628 18.5938 11.6666 18.5938H23.3333C23.937 18.5938 24.427 18.1038 24.427 17.5ZM20.052 23.3333C20.052 22.7296 19.562 22.2396 18.9583 22.2396H11.6666C11.0628 22.2396 10.5728 22.7296 10.5728 23.3333C10.5728 23.9371 11.0628 24.4271 11.6666 24.4271H18.9583C19.562 24.4271 20.052 23.9371 20.052 23.3333ZM24.427 11.6667C24.427 11.0629 23.937 10.5729 23.3333 10.5729H11.6666C11.0628 10.5729 10.5728 11.0629 10.5728 11.6667C10.5728 12.2704 11.0628 12.7604 11.6666 12.7604H23.3333C23.937 12.7604 24.427 12.2704 24.427 11.6667Z" fill="#292421"/>
</g>
</svg>
