<svg width="36" height="35" viewBox="0 0 36 35" fill="none" xmlns="http://www.w3.org/2000/svg">
<g id="Icons/Bankoff/QR">
<g id="Union">
<path d="M19.4584 5.83333C19.4584 5.02792 20.1113 4.375 20.9167 4.375H26.7501C29.1663 4.375 31.1251 6.33375 31.1251 8.75V13.125C31.1251 13.9304 30.4722 14.5833 29.6667 14.5833C28.8613 14.5833 28.2084 13.9304 28.2084 13.125V8.75C28.2084 7.94458 27.5555 7.29167 26.7501 7.29167H20.9167C20.1113 7.29167 19.4584 6.63875 19.4584 5.83333Z" fill="#292421"/>
<path d="M32.5834 17.5C32.5834 18.3054 31.9305 18.9583 31.1251 18.9583H4.87508C4.06967 18.9583 3.41675 18.3054 3.41675 17.5C3.41675 16.6946 4.06967 16.0417 4.87508 16.0417H31.1251C31.9305 16.0417 32.5834 16.6946 32.5834 17.5Z" fill="#292421"/>
<path d="M15.0834 30.625C15.8888 30.625 16.5417 29.9721 16.5417 29.1667C16.5417 28.3613 15.8888 27.7083 15.0834 27.7083H9.25008C8.44467 27.7083 7.79175 27.0554 7.79175 26.25L7.79175 21.875C7.79175 21.0696 7.13883 20.4167 6.33342 20.4167C5.528 20.4167 4.87508 21.0696 4.87508 21.875L4.87508 26.25C4.87508 28.6662 6.83383 30.625 9.25008 30.625H15.0834Z" fill="#292421"/>
<path d="M16.5417 5.83333C16.5417 5.02792 15.8888 4.375 15.0834 4.375H9.25008C6.83383 4.375 4.87508 6.33375 4.87508 8.75V13.125C4.87508 13.9304 5.528 14.5833 6.33341 14.5833C7.13883 14.5833 7.79175 13.9304 7.79175 13.125V8.75C7.79175 7.94458 8.44467 7.29167 9.25008 7.29167H15.0834C15.8888 7.29167 16.5417 6.63875 16.5417 5.83333Z" fill="#292421"/>
<path d="M20.9167 30.625C20.1113 30.625 19.4584 29.9721 19.4584 29.1667C19.4584 28.3613 20.1113 27.7083 20.9167 27.7083H26.7501C27.5555 27.7083 28.2084 27.0554 28.2084 26.25V21.875C28.2084 21.0696 28.8613 20.4167 29.6667 20.4167C30.4722 20.4167 31.1251 21.0696 31.1251 21.875V26.25C31.1251 28.6662 29.1663 30.625 26.7501 30.625H20.9167Z" fill="#292421"/>
</g>
</g>
</svg>
