<svg width="25" height="25" viewBox="0 0 25 25" fill="none" xmlns="http://www.w3.org/2000/svg">
<g id="times-circle">
<path id="times-circle_2" d="M12.1853 1.91797C6.2573 1.91797 1.4353 6.74097 1.4353 12.668C1.4353 18.595 6.2573 23.418 12.1853 23.418C18.1133 23.418 22.9353 18.595 22.9353 12.668C22.9353 6.74097 18.1133 1.91797 12.1853 1.91797ZM12.1853 21.918C7.0843 21.918 2.9353 17.769 2.9353 12.668C2.9353 7.56697 7.0843 3.41797 12.1853 3.41797C17.2863 3.41797 21.4353 7.56697 21.4353 12.668C21.4353 17.769 17.2863 21.918 12.1853 21.918ZM15.7153 10.198L13.2453 12.668L15.7153 15.1379C16.0083 15.4309 16.0083 15.906 15.7153 16.199C15.5693 16.345 15.3773 16.4189 15.1853 16.4189C14.9933 16.4189 14.8013 16.346 14.6553 16.199L12.1853 13.7289L9.7153 16.199C9.5693 16.345 9.3773 16.4189 9.1853 16.4189C8.9933 16.4189 8.8013 16.346 8.6553 16.199C8.3623 15.906 8.3623 15.4309 8.6553 15.1379L11.1253 12.668L8.6553 10.198C8.3623 9.905 8.3623 9.42996 8.6553 9.13696C8.9483 8.84396 9.42331 8.84396 9.71631 9.13696L12.1863 11.607L14.6563 9.13696C14.9493 8.84396 15.4243 8.84396 15.7173 9.13696C16.0083 9.42996 16.0083 9.906 15.7153 10.198Z" fill="#EE2F2B"/>
</g>
</svg>
