<svg width="55" height="55" viewBox="0 0 55 55" fill="none" xmlns="http://www.w3.org/2000/svg">
<path d="M27.5207 24.6354C22.1491 24.6354 17.7812 20.2652 17.7812 14.8958C17.7812 9.52646 22.1491 5.15625 27.5207 5.15625C32.8924 5.15625 37.2603 9.52646 37.2603 14.8958C37.2603 20.2652 32.8924 24.6354 27.5207 24.6354ZM27.5207 8.59375C24.0443 8.59375 21.2187 11.4194 21.2187 14.8958C21.2187 18.3723 24.0443 21.1979 27.5207 21.1979C30.9972 21.1979 33.8228 18.3723 33.8228 14.8958C33.8228 11.4194 30.9949 8.59375 27.5207 8.59375ZM45.2605 48.125V41.2936C45.2605 35.1955 41.8092 28.0729 32.0834 28.0729H22.9167C13.1909 28.0729 9.73962 35.1932 9.73962 41.2936V48.125C9.73962 49.0738 10.5096 49.8438 11.4584 49.8438C12.4071 49.8438 13.1771 49.0738 13.1771 48.125V41.2936C13.1771 38.9997 13.8807 31.5104 22.9167 31.5104H32.0834C41.1194 31.5104 41.823 38.9974 41.823 41.2936V48.125C41.823 49.0738 42.593 49.8438 43.5417 49.8438C44.4905 49.8438 45.2605 49.0738 45.2605 48.125Z" fill="white"/>
</svg>
