<svg width="625" height="89" viewBox="0 0 625 89" fill="none" xmlns="http://www.w3.org/2000/svg">
<path opacity="0.5" d="M561.872 29.9699C585.638 -14.0629 600.146 -7.98092 625 37.7657V89H0V48.7699L14.5242 44.8361C44.7676 36.6448 75.798 45.2004 103.119 60.5409C124.268 72.4159 143.575 75.3849 168.588 62.8558C184.011 55.1304 199.792 47.5961 216.897 45.3626L229.666 43.6952C258.498 39.9302 286.01 53.5888 314.185 60.7762C343.237 68.1872 367.582 51.7838 400.467 37.7657C416.85 30.7823 429.266 51.8203 446.079 37.7657C471.97 9.04028 486.26 7.18072 511.179 37.7657C525.49 56.2905 534.292 65.5633 552.37 44.6239C556.175 40.2174 559.107 35.0928 561.872 29.9699Z" fill="url(#paint0_linear_109_572)"/>
<defs>
<linearGradient id="paint0_linear_109_572" x1="586.72" y1="-0.459036" x2="586.72" y2="91.1174" gradientUnits="userSpaceOnUse">
<stop stop-color="#FED602"/>
<stop offset="1" stop-color="#D9D9D9" stop-opacity="0"/>
<stop offset="1" stop-color="#FED602" stop-opacity="0"/>
</linearGradient>
</defs>
</svg>
