<svg width="67" height="50" viewBox="0 0 67 50" fill="none" xmlns="http://www.w3.org/2000/svg">
<g clip-path="url(#clip0_562_3724)">
<path d="M67.1156 2.06755C69.3548 32.4004 49.859 46.7373 32.3817 48.2662C16.1328 49.6876 0.83788 39.702 -0.503925 24.36C-1.61077 11.685 6.2221 6.28879 12.3763 5.75087C18.706 5.19599 24.0251 9.5616 24.4865 14.8473C24.9309 19.9293 21.7604 22.2423 19.5552 22.4348C17.8114 22.5877 15.6175 21.5289 15.4194 19.2555C15.2495 17.302 15.9912 17.0358 15.81 14.9606C15.4873 11.266 12.2659 10.8356 10.5023 10.9885C8.36785 11.1753 4.49529 13.6668 5.03882 19.8727C5.58515 26.1323 11.5865 31.0784 19.4533 30.3904C27.9428 29.6487 33.8537 23.0379 34.2981 13.7658C34.294 13.2748 34.3976 12.7887 34.6009 12.3418L34.6037 12.3305C34.6953 12.1363 34.8023 11.9497 34.9237 11.7727C35.1048 11.5009 35.337 11.2008 35.637 10.8724C35.6398 10.8639 35.6398 10.8639 35.6456 10.8639C35.8634 10.6176 36.1267 10.3515 36.424 10.0655C40.1323 6.56624 53.4881 -1.68655 66.1192 0.926599C66.3862 0.98383 66.6276 1.12586 66.807 1.33149C66.9867 1.53712 67.0948 1.79532 67.1156 2.06755Z" fill="url(#paint0_linear_562_3724)"/>
</g>
<defs>
<linearGradient id="paint0_linear_562_3724" x1="65.3937" y1="1.76526" x2="21.4367" y2="63.9776" gradientUnits="userSpaceOnUse">
<stop stop-color="#11C4D1"/>
<stop offset="1" stop-color="#0062AD"/>
</linearGradient>
<clipPath id="clip0_562_3724">
<rect width="66.6667" height="50" fill="white" transform="translate(0.03125)"/>
</clipPath>
</defs>
</svg>
