<svg width="24" height="24" viewBox="0 0 24 24" fill="none" xmlns="http://www.w3.org/2000/svg">
<g id="united arab emirates" clip-path="url(#clip0_1844_16119)">
<path id="Vector" d="M11.5566 24C18.1841 24 23.5566 18.6274 23.5566 12C23.5566 5.37258 18.1841 0 11.5566 0C4.92922 0 -0.443359 5.37258 -0.443359 12C-0.443359 18.6274 4.92922 24 11.5566 24Z" fill="#F0F0F0"/>
<path id="Vector_2" d="M6.33936 16.1738L7.38284 23.2536C8.68278 23.736 10.0889 23.9999 11.5567 23.9999C16.7163 23.9999 21.1148 20.7434 22.8103 16.1738H6.33936Z" fill="black"/>
<path id="Vector_3" d="M6.33936 7.82611L7.38284 0.746297C8.68278 0.263906 10.0889 0 11.5567 0C16.7163 0 21.1148 3.2565 22.8103 7.82611H6.33936Z" fill="#6DA544"/>
<path id="Vector_4" d="M-0.443359 11.9997C-0.443359 17.1593 2.81319 21.5578 7.38275 23.2533V0.746094C2.81319 2.44161 -0.443359 6.84012 -0.443359 11.9997Z" fill="#A2001D"/>
</g>
<defs>
<clipPath id="clip0_1844_16119">
<rect width="24" height="24" fill="white"/>
</clipPath>
</defs>
</svg>
