<svg width="53" height="50" viewBox="0 0 53 50" fill="none" xmlns="http://www.w3.org/2000/svg">
<g clip-path="url(#clip0_562_3719)">
<path fill-rule="evenodd" clip-rule="evenodd" d="M1.24805 50.0004L16.386 8.64759C18.3068 3.81961 21.888 1.08664 26.6487 1.00763V1.00586L26.7551 1.0063L26.8618 1.00586V1.00763C31.6224 1.08664 35.2037 3.81961 37.1246 8.64759L52.2624 50.0004L42.8886 46.7499L29.957 11.4246C29.17 9.47087 28.2611 8.76742 26.7551 8.73644C25.2492 8.76742 24.3404 9.47087 23.5535 11.4246L10.622 46.7499L1.24805 50.0004ZM33.342 34.2541C33.342 37.8662 30.4329 40.7946 26.8441 40.7946C23.2556 40.7946 20.3464 37.8662 20.3464 34.2541C20.3464 30.642 23.2556 27.7138 26.8441 27.7138C30.4329 27.7138 33.342 30.642 33.342 34.2541Z" fill="#3692FE"/>
</g>
<defs>
<clipPath id="clip0_562_3719">
<rect width="51.0417" height="50" fill="white" transform="translate(0.989258)"/>
</clipPath>
</defs>
</svg>
